<?xml version="1.0" encoding="UTF-8" standalone="no"?>
<!-- Created with Inkscape (http://www.inkscape.org/) -->

<svg
   width="98.984848mm"
   height="63.957855mm"
   viewBox="0 0 98.984848 63.957855"
   version="1.1"
   id="svg5"
   xmlns="http://www.w3.org/2000/svg"
   xmlns:svg="http://www.w3.org/2000/svg">
  <defs
     id="defs2" />
  <g
     id="layer1"
     transform="translate(-0.03732,-0.0210743)">
    <path
       id="rect234"
       style="fill:#cc0000;fill-opacity:1;stroke-width:0.469"
       d="M 11.296968,12.413622 C 14.803477,11.109184 36.928495,9.3943197 50.94561,9.3943197 V 41.373245 H 1.4531915 c 0,-6.774715 0.8768934,-18.554784 2.3067627,-22.264423 1.4298692,-3.70964 4.0305045,-5.390762 7.5370138,-6.6952 z m 79.297284,0 C 87.087743,11.109184 64.962725,9.3943197 50.94561,9.3943197 V 41.373245 h 49.49242 c 0,-6.774715 -0.876895,-18.554784 -2.306764,-22.264423 -1.429869,-3.70964 -4.030505,-5.390762 -7.537014,-6.6952 z M 11.296968,70.332873 c 3.506509,1.304438 25.631527,3.019302 39.648642,3.019302 V 41.37325 H 1.4531915 c 0,6.774715 0.8768934,18.554784 2.3067627,22.264423 1.4298692,3.70964 4.0305045,5.390762 7.5370138,6.6952 z m 79.297284,0 C 87.087743,71.637311 64.962725,73.352175 50.94561,73.352175 V 41.37325 h 49.49242 c 0,6.774715 -0.876895,18.554784 -2.306764,22.264423 -1.429869,3.70964 -4.030505,5.390762 -7.537014,6.6952 z"
       class="UnoptimicedTransforms"
       transform="translate(-1.4158715,-9.3732454)" />
    <path
       style="fill:#ffffff;fill-opacity:1;stroke-width:0.451516"
       d="M 37.606807,44.180316 V 19.819684 L 68.796264,32 Z"
       id="path1080" />
  </g>
</svg>
